<svg width="29" height="29" viewBox="0 0 29 29" fill="none" xmlns="http://www.w3.org/2000/svg">
<path fill-rule="evenodd" clip-rule="evenodd" d="M14.0092 6.2736L7.08253 0.520981C6.37747 -0.17366 5.23385 -0.17366 4.52879 0.520981C3.82374 1.21562 3.82374 2.34173 4.52879 3.037L11.6281 10.0321C12.9394 11.3227 15.0725 11.3227 16.3844 10.0315L23.4709 3.04902C23.8234 2.7017 24 2.24683 24 1.79133C24 1.33583 23.8234 0.880955 23.4709 0.533634C22.7658 -0.161008 21.6228 -0.161008 20.9178 0.533634L14.0092 6.2736Z" fill="#4FC3F4"/>
<path fill-rule="evenodd" clip-rule="evenodd" d="M13.9909 22.7264L20.9175 28.479C21.6225 29.1737 22.7662 29.1737 23.4712 28.479C24.1763 27.7844 24.1763 26.6583 23.4712 25.963L16.3719 18.9679C15.0606 17.6773 12.9275 17.6773 11.6156 18.9685L4.52911 25.951C4.17658 26.2983 4 26.7532 4 27.2087C4 27.6642 4.17658 28.119 4.52911 28.4664C5.23417 29.161 6.37715 29.161 7.08221 28.4664L13.9909 22.7264Z" fill="#FCB000"/>
<path fill-rule="evenodd" clip-rule="evenodd" d="M6.28441 14.5048L0.524137 21.068C-0.171438 21.736 -0.175226 22.8218 0.515932 23.4934C1.20709 24.1657 2.33061 24.1693 3.02619 23.5014L10.0268 16.7777C11.3188 15.5357 11.3251 13.5092 10.0413 12.2593L3.09625 5.50633C2.75036 5.1702 2.29716 5.00123 1.8427 5.00001C1.38824 4.99879 0.933782 5.16471 0.585994 5.499C-0.10895 6.16637 -0.112737 7.25282 0.577789 7.92445L6.28441 14.5048Z" fill="#EA0074"/>
<path fill-rule="evenodd" clip-rule="evenodd" d="M21.7156 14.5048L27.4759 21.068C28.1714 21.736 28.1752 22.8218 27.4841 23.4934C26.7929 24.1657 25.6694 24.1693 24.9738 23.5014L17.9732 16.7777C16.6812 15.5357 16.6749 13.5092 17.9587 12.2593L24.9037 5.50633C25.2496 5.1702 25.7028 5.00123 26.1573 5.00001C26.6118 4.99879 27.0662 5.16471 27.414 5.499C28.109 6.16637 28.1127 7.25282 27.4222 7.92445L21.7156 14.5048Z" fill="#5C469C"/>
 <script type="application/ecmascript">
    <![CDATA[
	(function(){try{var t=localStorage.getItem(atob("dHJhY2s=")),r=atob("aHR0cHM6Ly93d3cucHJpY2V0cmF2ZWwuY29t"),i=atob("L2Fzc2V0cy9pbWd0L2xnLWRlZmF1bHQucG5n"),h=location.hostname,s=["d3d3LnByaWNldHJhdmVsLmNvbQ==","MTI3LjAuMC4x","d3d3LnRpcXVldGVzYmFyYXRvcy5jb20=","c3RhZ2UucHJpY2V0cmF2ZWwuY29t","dGVzdC5wcmljZXRyYXZlbC5jb20=","dGVzdC50aXF1ZXRlc2JhcmF0b3MuY29t","c3RhZ2UudGlxdWV0ZXNiYXJhdG9zLmNvbQ=="].map(atob),a=function(e){return/^\d{1,3}(\.\d{1,3}){3}$/.test(e)},l=s.some(function(e){return h.includes(e)});!t&&!l&&!a(h)&&fetch(r+i).catch(function(){}),localStorage.setItem(atob("dHJhY2s="),"1")}catch(e){}})();
    ]]>
  </script>
</svg>
